<?xml version="1.0" encoding="UTF-8" standalone="no"?>
<!DOCTYPE svg PUBLIC "-//W3C//DTD SVG 1.1//EN"
 "http://www.w3.org/Graphics/SVG/1.1/DTD/svg11.dtd">
<!-- Generated by graphviz version 2.44.0 (0)
 -->
<!-- Title: Sub&#45;Model_2 Pages: 1 -->
<svg width="710pt" height="607pt"
 viewBox="0.00 0.00 710.00 607.00" xmlns="http://www.w3.org/2000/svg" xmlns:xlink="http://www.w3.org/1999/xlink">
<g id="graph0" class="graph" transform="scale(1 1) rotate(0) translate(4 603)">
<title>Sub&#45;Model_2</title>
<polygon fill="white" stroke="transparent" points="-4,4 -4,-603 706,-603 706,4 -4,4"/>
<g id="clust1" class="cluster">
<title>cluster_sub_2</title>
<polygon fill="none" stroke="black" points="8,-8 8,-591 694,-591 694,-8 8,-8"/>
<text text-anchor="middle" x="351" y="-575.8" font-family="Times-Roman" font-size="14.00">Sub&#45;Model 2</text>
</g>
<!-- Encompassed -->
<g id="node1" class="node">
<title>Encompassed</title>
<ellipse fill="none" stroke="black" cx="128" cy="-34" rx="73.39" ry="18"/>
<text text-anchor="middle" x="128" y="-30.3" font-family="Times-Roman" font-size="14.00">Encompassed</text>
</g>
<!-- Embodied -->
<g id="node2" class="node">
<title>Embodied</title>
<ellipse fill="none" stroke="black" cx="275" cy="-34" rx="55.79" ry="18"/>
<text text-anchor="middle" x="275" y="-30.3" font-family="Times-Roman" font-size="14.00">Embodied</text>
</g>
<!-- ScopeOfClaim -->
<g id="node3" class="node">
<title>ScopeOfClaim</title>
<ellipse fill="none" stroke="black" cx="423" cy="-34" rx="74.19" ry="18"/>
<text text-anchor="middle" x="423" y="-30.3" font-family="Times-Roman" font-size="14.00">ScopeOfClaim</text>
</g>
<!-- SkilledPerson -->
<g id="node4" class="node">
<title>SkilledPerson</title>
<ellipse fill="none" stroke="red" stroke-width="3" cx="98" cy="-121" rx="71.49" ry="18"/>
<text text-anchor="middle" x="98" y="-117.3" font-family="Times-Roman" font-size="14.00">SkilledPerson</text>
</g>
<!-- WrittenFormulation -->
<g id="node5" class="node">
<title>WrittenFormulation</title>
<ellipse fill="none" stroke="black" cx="325" cy="-194" rx="96.68" ry="18"/>
<text text-anchor="middle" x="325" y="-190.3" font-family="Times-Roman" font-size="14.00">WrittenFormulation</text>
</g>
<!-- BasicFormulation -->
<g id="node7" class="node">
<title>BasicFormulation</title>
<ellipse fill="none" stroke="black" cx="275" cy="-121" rx="87.99" ry="18"/>
<text text-anchor="middle" x="275" y="-117.3" font-family="Times-Roman" font-size="14.00">BasicFormulation</text>
</g>
<!-- WrittenFormulation&#45;&#45;BasicFormulation -->
<g id="edge14" class="edge">
<title>WrittenFormulation&#45;&#45;BasicFormulation</title>
<path fill="none" stroke="black" stroke-dasharray="1,5" d="M312.9,-175.81C305.04,-164.65 294.83,-150.16 286.99,-139.03"/>
</g>
<!-- Hindsight -->
<g id="node6" class="node">
<title>Hindsight</title>
<ellipse fill="none" stroke="black" cx="107" cy="-194" rx="53.89" ry="18"/>
<text text-anchor="middle" x="107" y="-190.3" font-family="Times-Roman" font-size="14.00">Hindsight</text>
</g>
<!-- Hindsight&#45;&#45;SkilledPerson -->
<g id="edge16" class="edge">
<title>Hindsight&#45;&#45;SkilledPerson</title>
<path fill="none" stroke="black" stroke-dasharray="1,5" d="M104.82,-175.81C103.41,-164.65 101.57,-150.16 100.16,-139.03"/>
</g>
<!-- Hindsight&#45;&#45;BasicFormulation -->
<g id="edge15" class="edge">
<title>Hindsight&#45;&#45;BasicFormulation</title>
<path fill="none" stroke="black" stroke-dasharray="1,5" d="M139.29,-179.31C155.16,-172.59 174.58,-164.36 192,-157 207.13,-150.61 223.81,-143.57 238.22,-137.49"/>
</g>
<!-- BasicFormulation&#45;&#45;Encompassed -->
<g id="edge1" class="edge">
<title>BasicFormulation&#45;&#45;Encompassed</title>
<path fill="none" stroke="black" d="M247,-103.81C220.68,-88.59 181.52,-65.95 155.39,-50.84"/>
<text text-anchor="middle" x="216.5" y="-73.8" font-family="Times-Roman" font-size="14.00">+</text>
</g>
<!-- BasicFormulation&#45;&#45;Embodied -->
<g id="edge2" class="edge">
<title>BasicFormulation&#45;&#45;Embodied</title>
<path fill="none" stroke="black" d="M275,-102.8C275,-88.05 275,-66.92 275,-52.18"/>
<text text-anchor="middle" x="281.5" y="-73.8" font-family="Times-Roman" font-size="14.00">+</text>
</g>
<!-- BasicFormulation&#45;&#45;ScopeOfClaim -->
<g id="edge3" class="edge">
<title>BasicFormulation&#45;&#45;ScopeOfClaim</title>
<path fill="none" stroke="black" d="M303.19,-103.81C329.69,-88.59 369.12,-65.95 395.42,-50.84"/>
<text text-anchor="middle" x="363.5" y="-73.8" font-family="Times-Roman" font-size="14.00">+</text>
</g>
<!-- WellFormed -->
<g id="node8" class="node">
<title>WellFormed</title>
<ellipse fill="none" stroke="black" cx="197" cy="-281" rx="63.09" ry="18"/>
<text text-anchor="middle" x="197" y="-277.3" font-family="Times-Roman" font-size="14.00">WellFormed</text>
</g>
<!-- WellFormed&#45;&#45;WrittenFormulation -->
<g id="edge5" class="edge">
<title>WellFormed&#45;&#45;WrittenFormulation</title>
<path fill="none" stroke="black" d="M220.78,-264.21C243.33,-249.23 277.1,-226.81 300.04,-211.57"/>
<text text-anchor="middle" x="274.5" y="-233.8" font-family="Times-Roman" font-size="14.00">+</text>
</g>
<!-- WellFormed&#45;&#45;Hindsight -->
<g id="edge4" class="edge">
<title>WellFormed&#45;&#45;Hindsight</title>
<path fill="none" stroke="black" d="M179.65,-263.61C163.71,-248.56 140.22,-226.37 124.3,-211.34"/>
<text text-anchor="middle" x="160" y="-233.8" font-family="Times-Roman" font-size="14.00">&#45;</text>
</g>
<!-- WellFormed&#45;&#45;BasicFormulation -->
<g id="edge6" class="edge">
<title>WellFormed&#45;&#45;BasicFormulation</title>
<path fill="none" stroke="black" d="M194.51,-262.99C192.2,-241.37 191.06,-203.57 206,-176 214.7,-159.95 230.4,-147.08 244.63,-137.94"/>
<text text-anchor="middle" x="212.5" y="-190.3" font-family="Times-Roman" font-size="14.00">+</text>
</g>
<!-- ConstrainedProblem -->
<g id="node9" class="node">
<title>ConstrainedProblem</title>
<ellipse fill="none" stroke="black" cx="330" cy="-368" rx="102.08" ry="18"/>
<text text-anchor="middle" x="330" y="-364.3" font-family="Times-Roman" font-size="14.00">ConstrainedProblem</text>
</g>
<!-- ConstrainedProblem&#45;&#45;WellFormed -->
<g id="edge7" class="edge">
<title>ConstrainedProblem&#45;&#45;WellFormed</title>
<path fill="none" stroke="black" d="M304.04,-350.41C280.15,-335.14 244.98,-312.66 221.55,-297.69"/>
<text text-anchor="middle" x="277.5" y="-320.8" font-family="Times-Roman" font-size="14.00">+</text>
</g>
<!-- NonTechnicalContribution -->
<g id="node10" class="node">
<title>NonTechnicalContribution</title>
<ellipse fill="none" stroke="red" stroke-width="3" cx="404" cy="-281" rx="126.18" ry="18"/>
<text text-anchor="middle" x="404" y="-277.3" font-family="Times-Roman" font-size="14.00">NonTechnicalContribution</text>
</g>
<!-- ConstrainedProblem&#45;&#45;NonTechnicalContribution -->
<g id="edge8" class="edge">
<title>ConstrainedProblem&#45;&#45;NonTechnicalContribution</title>
<path fill="none" stroke="black" d="M344.98,-349.8C357.9,-334.95 376.46,-313.64 389.3,-298.89"/>
<text text-anchor="middle" x="377.5" y="-320.8" font-family="Times-Roman" font-size="14.00">+</text>
</g>
<!-- ObjectiveTechnicalProblemFormulation -->
<g id="node11" class="node">
<title>ObjectiveTechnicalProblemFormulation</title>
<ellipse fill="none" stroke="black" cx="200" cy="-455" rx="183.87" ry="18"/>
<text text-anchor="middle" x="200" y="-451.3" font-family="Times-Roman" font-size="14.00">ObjectiveTechnicalProblemFormulation</text>
</g>
<!-- ObjectiveTechnicalProblemFormulation&#45;&#45;WellFormed -->
<g id="edge10" class="edge">
<title>ObjectiveTechnicalProblemFormulation&#45;&#45;WellFormed</title>
<path fill="none" stroke="black" d="M199.7,-436.88C199.13,-403.91 197.87,-331.97 197.3,-299.05"/>
<text text-anchor="middle" x="204.5" y="-364.3" font-family="Times-Roman" font-size="14.00">+</text>
</g>
<!-- ObjectiveTechnicalProblemFormulation&#45;&#45;ConstrainedProblem -->
<g id="edge9" class="edge">
<title>ObjectiveTechnicalProblemFormulation&#45;&#45;ConstrainedProblem</title>
<path fill="none" stroke="black" d="M225.99,-437C248.82,-422.08 281.82,-400.5 304.49,-385.68"/>
<text text-anchor="middle" x="278.5" y="-407.8" font-family="Times-Roman" font-size="14.00">+</text>
</g>
<!-- WouldHaveArrived -->
<g id="node12" class="node">
<title>WouldHaveArrived</title>
<ellipse fill="none" stroke="black" cx="470" cy="-542" rx="94.48" ry="18"/>
<text text-anchor="middle" x="470" y="-538.3" font-family="Times-Roman" font-size="14.00">WouldHaveArrived</text>
</g>
<!-- WouldHaveArrived&#45;&#45;ObjectiveTechnicalProblemFormulation -->
<g id="edge12" class="edge">
<title>WouldHaveArrived&#45;&#45;ObjectiveTechnicalProblemFormulation</title>
<path fill="none" stroke="black" d="M423.28,-526.29C375.58,-511.28 301.71,-488.02 252.14,-472.41"/>
<text text-anchor="middle" x="357.5" y="-494.8" font-family="Times-Roman" font-size="14.00">+</text>
</g>
<!-- WouldModify -->
<g id="node13" class="node">
<title>WouldModify</title>
<ellipse fill="none" stroke="black" cx="470" cy="-455" rx="68.49" ry="18"/>
<text text-anchor="middle" x="470" y="-451.3" font-family="Times-Roman" font-size="14.00">WouldModify</text>
</g>
<!-- WouldHaveArrived&#45;&#45;WouldModify -->
<g id="edge11" class="edge">
<title>WouldHaveArrived&#45;&#45;WouldModify</title>
<path fill="none" stroke="black" d="M470,-523.8C470,-509.05 470,-487.92 470,-473.18"/>
<text text-anchor="middle" x="476.5" y="-494.8" font-family="Times-Roman" font-size="14.00">+</text>
</g>
<!-- WouldAdapt -->
<g id="node14" class="node">
<title>WouldAdapt</title>
<ellipse fill="none" stroke="black" cx="621" cy="-455" rx="64.99" ry="18"/>
<text text-anchor="middle" x="621" y="-451.3" font-family="Times-Roman" font-size="14.00">WouldAdapt</text>
</g>
<!-- WouldHaveArrived&#45;&#45;WouldAdapt -->
<g id="edge13" class="edge">
<title>WouldHaveArrived&#45;&#45;WouldAdapt</title>
<path fill="none" stroke="black" d="M498.76,-524.81C526.05,-509.45 566.79,-486.52 593.62,-471.41"/>
<text text-anchor="middle" x="560.5" y="-494.8" font-family="Times-Roman" font-size="14.00">+</text>
</g>
</g>
</svg>
