<?xml version="1.0" encoding="UTF-8" standalone="no"?>
<!DOCTYPE svg PUBLIC "-//W3C//DTD SVG 1.1//EN"
 "http://www.w3.org/Graphics/SVG/1.1/DTD/svg11.dtd">
<!-- Generated by graphviz version 2.44.0 (0)
 -->
<!-- Title: Sub&#45;Model_1 Pages: 1 -->
<svg width="1726pt" height="868pt"
 viewBox="0.00 0.00 1726.00 868.00" xmlns="http://www.w3.org/2000/svg" xmlns:xlink="http://www.w3.org/1999/xlink">
<g id="graph0" class="graph" transform="scale(1 1) rotate(0) translate(4 864)">
<title>Sub&#45;Model_1</title>
<polygon fill="white" stroke="transparent" points="-4,4 -4,-864 1722,-864 1722,4 -4,4"/>
<g id="clust1" class="cluster">
<title>cluster_sub_1</title>
<polygon fill="none" stroke="black" points="8,-8 8,-852 1710,-852 1710,-8 8,-8"/>
<text text-anchor="middle" x="859" y="-836.8" font-family="Times-Roman" font-size="14.00">Sub&#45;Model 1</text>
</g>
<!-- IndependentContribution -->
<g id="node1" class="node">
<title>IndependentContribution</title>
<ellipse fill="none" stroke="black" cx="1148" cy="-208" rx="124.28" ry="18"/>
<text text-anchor="middle" x="1148" y="-204.3" font-family="Times-Roman" font-size="14.00">IndependentContribution</text>
</g>
<!-- CombinationContribution -->
<g id="node2" class="node">
<title>CombinationContribution</title>
<ellipse fill="none" stroke="black" cx="1578" cy="-208" rx="124.28" ry="18"/>
<text text-anchor="middle" x="1578" y="-204.3" font-family="Times-Roman" font-size="14.00">CombinationContribution</text>
</g>
<!-- CircumventTechProblem -->
<g id="node3" class="node">
<title>CircumventTechProblem</title>
<ellipse fill="none" stroke="black" cx="887" cy="-208" rx="118.88" ry="18"/>
<text text-anchor="middle" x="887" y="-204.3" font-family="Times-Roman" font-size="14.00">CircumventTechProblem</text>
</g>
<!-- TechnicalAdaptation -->
<g id="node4" class="node">
<title>TechnicalAdaptation</title>
<ellipse fill="none" stroke="black" cx="352" cy="-295" rx="100.98" ry="18"/>
<text text-anchor="middle" x="352" y="-291.3" font-family="Times-Roman" font-size="14.00">TechnicalAdaptation</text>
</g>
<!-- NumOrComp -->
<g id="node5" class="node">
<title>NumOrComp</title>
<ellipse fill="none" stroke="black" cx="592" cy="-121" rx="69.59" ry="18"/>
<text text-anchor="middle" x="592" y="-117.3" font-family="Times-Roman" font-size="14.00">NumOrComp</text>
</g>
<!-- NumericalData -->
<g id="node6" class="node">
<title>NumericalData</title>
<ellipse fill="none" stroke="black" cx="558" cy="-34" rx="77.19" ry="18"/>
<text text-anchor="middle" x="558" y="-30.3" font-family="Times-Roman" font-size="14.00">NumericalData</text>
</g>
<!-- NumOrComp&#45;&#45;NumericalData -->
<g id="edge1" class="edge">
<title>NumOrComp&#45;&#45;NumericalData</title>
<path fill="none" stroke="black" d="M585.12,-102.8C579.22,-88.05 570.77,-66.92 564.87,-52.18"/>
<text text-anchor="middle" x="583.5" y="-73.8" font-family="Times-Roman" font-size="14.00">+</text>
</g>
<!-- ComputerSimulation -->
<g id="node7" class="node">
<title>ComputerSimulation</title>
<ellipse fill="none" stroke="black" cx="757" cy="-34" rx="103.18" ry="18"/>
<text text-anchor="middle" x="757" y="-30.3" font-family="Times-Roman" font-size="14.00">ComputerSimulation</text>
</g>
<!-- NumOrComp&#45;&#45;ComputerSimulation -->
<g id="edge2" class="edge">
<title>NumOrComp&#45;&#45;ComputerSimulation</title>
<path fill="none" stroke="black" d="M621.88,-104.61C651.13,-89.54 695.54,-66.66 725.37,-51.29"/>
<text text-anchor="middle" x="690.5" y="-73.8" font-family="Times-Roman" font-size="14.00">+</text>
</g>
<!-- IntendedTechnicalUse -->
<g id="node8" class="node">
<title>IntendedTechnicalUse</title>
<ellipse fill="none" stroke="black" cx="592" cy="-208" rx="109.38" ry="18"/>
<text text-anchor="middle" x="592" y="-204.3" font-family="Times-Roman" font-size="14.00">IntendedTechnicalUse</text>
</g>
<!-- IntendedTechnicalUse&#45;&#45;NumOrComp -->
<g id="edge39" class="edge">
<title>IntendedTechnicalUse&#45;&#45;NumOrComp</title>
<path fill="none" stroke="black" stroke-dasharray="1,5" d="M592,-189.8C592,-175.05 592,-153.92 592,-139.18"/>
</g>
<!-- TechUseSpecified -->
<g id="node9" class="node">
<title>TechUseSpecified</title>
<ellipse fill="none" stroke="black" cx="629" cy="-295" rx="89.08" ry="18"/>
<text text-anchor="middle" x="629" y="-291.3" font-family="Times-Roman" font-size="14.00">TechUseSpecified</text>
</g>
<!-- TechUseSpecified&#45;&#45;IntendedTechnicalUse -->
<g id="edge40" class="edge">
<title>TechUseSpecified&#45;&#45;IntendedTechnicalUse</title>
<path fill="none" stroke="black" stroke-dasharray="1,5" d="M621.51,-276.8C615.09,-262.05 605.89,-240.92 599.48,-226.18"/>
</g>
<!-- SpecificPurpose -->
<g id="node10" class="node">
<title>SpecificPurpose</title>
<ellipse fill="none" stroke="black" cx="313" cy="-208" rx="82.59" ry="18"/>
<text text-anchor="middle" x="313" y="-204.3" font-family="Times-Roman" font-size="14.00">SpecificPurpose</text>
</g>
<!-- MathematicalMethod -->
<g id="node21" class="node">
<title>MathematicalMethod</title>
<ellipse fill="none" stroke="black" cx="321" cy="-121" rx="104.78" ry="18"/>
<text text-anchor="middle" x="321" y="-117.3" font-family="Times-Roman" font-size="14.00">MathematicalMethod</text>
</g>
<!-- SpecificPurpose&#45;&#45;MathematicalMethod -->
<g id="edge41" class="edge">
<title>SpecificPurpose&#45;&#45;MathematicalMethod</title>
<path fill="none" stroke="black" stroke-dasharray="1,5" d="M314.62,-189.8C316.01,-175.05 318,-153.92 319.38,-139.18"/>
</g>
<!-- FunctionallyLimited -->
<g id="node11" class="node">
<title>FunctionallyLimited</title>
<ellipse fill="none" stroke="black" cx="114" cy="-208" rx="98.28" ry="18"/>
<text text-anchor="middle" x="114" y="-204.3" font-family="Times-Roman" font-size="14.00">FunctionallyLimited</text>
</g>
<!-- FunctionallyLimited&#45;&#45;MathematicalMethod -->
<g id="edge42" class="edge">
<title>FunctionallyLimited&#45;&#45;MathematicalMethod</title>
<path fill="none" stroke="black" stroke-dasharray="1,5" d="M152.45,-191.21C189.51,-175.99 245.29,-153.09 282.41,-137.85"/>
</g>
<!-- UnexpectedEffect -->
<g id="node12" class="node">
<title>UnexpectedEffect</title>
<ellipse fill="none" stroke="black" cx="510" cy="-542" rx="90.98" ry="18"/>
<text text-anchor="middle" x="510" y="-538.3" font-family="Times-Roman" font-size="14.00">UnexpectedEffect</text>
</g>
<!-- FeatureTechnicalContribution -->
<g id="node26" class="node">
<title>FeatureTechnicalContribution</title>
<ellipse fill="none" stroke="black" cx="510" cy="-469" rx="141.88" ry="18"/>
<text text-anchor="middle" x="510" y="-465.3" font-family="Times-Roman" font-size="14.00">FeatureTechnicalContribution</text>
</g>
<!-- UnexpectedEffect&#45;&#45;FeatureTechnicalContribution -->
<g id="edge43" class="edge">
<title>UnexpectedEffect&#45;&#45;FeatureTechnicalContribution</title>
<path fill="none" stroke="black" stroke-dasharray="1,5" d="M510,-523.81C510,-512.65 510,-498.16 510,-487.03"/>
</g>
<!-- PreciseTerms -->
<g id="node13" class="node">
<title>PreciseTerms</title>
<ellipse fill="none" stroke="black" cx="713" cy="-629" rx="68.79" ry="18"/>
<text text-anchor="middle" x="713" y="-625.3" font-family="Times-Roman" font-size="14.00">PreciseTerms</text>
</g>
<!-- PreciseTerms&#45;&#45;UnexpectedEffect -->
<g id="edge45" class="edge">
<title>PreciseTerms&#45;&#45;UnexpectedEffect</title>
<path fill="none" stroke="black" stroke-dasharray="1,5" d="M685.23,-612.42C665.89,-601.92 639.31,-588.19 615,-578 596.75,-570.35 576.18,-563.19 558.12,-557.37"/>
</g>
<!-- PreciseTerms&#45;&#45;FeatureTechnicalContribution -->
<g id="edge44" class="edge">
<title>PreciseTerms&#45;&#45;FeatureTechnicalContribution</title>
<path fill="none" stroke="black" stroke-dasharray="1,5" d="M701.25,-610.97C682.44,-584.85 643.17,-534.8 599,-505 587.58,-497.29 574.2,-490.9 561.35,-485.79"/>
</g>
<!-- OneWayStreet -->
<g id="node14" class="node">
<title>OneWayStreet</title>
<ellipse fill="none" stroke="black" cx="502" cy="-629" rx="75.29" ry="18"/>
<text text-anchor="middle" x="502" y="-625.3" font-family="Times-Roman" font-size="14.00">OneWayStreet</text>
</g>
<!-- OneWayStreet&#45;&#45;UnexpectedEffect -->
<g id="edge47" class="edge">
<title>OneWayStreet&#45;&#45;UnexpectedEffect</title>
<path fill="none" stroke="black" stroke-dasharray="1,5" d="M503.62,-610.8C505.01,-596.05 507,-574.92 508.38,-560.18"/>
</g>
<!-- OneWayStreet&#45;&#45;FeatureTechnicalContribution -->
<g id="edge46" class="edge">
<title>OneWayStreet&#45;&#45;FeatureTechnicalContribution</title>
<path fill="none" stroke="black" stroke-dasharray="1,5" d="M542.97,-613.86C567.16,-603.14 595.76,-585.8 610,-560 617.73,-545.99 618.2,-537.74 610,-524 599.44,-506.29 580.84,-494.04 562.52,-485.75"/>
</g>
<!-- NonReproducible -->
<g id="node15" class="node">
<title>NonReproducible</title>
<ellipse fill="none" stroke="black" cx="945" cy="-469" rx="87.18" ry="18"/>
<text text-anchor="middle" x="945" y="-465.3" font-family="Times-Roman" font-size="14.00">NonReproducible</text>
</g>
<!-- Reproducible -->
<g id="node16" class="node">
<title>Reproducible</title>
<ellipse fill="none" stroke="black" cx="945" cy="-382" rx="69.59" ry="18"/>
<text text-anchor="middle" x="945" y="-378.3" font-family="Times-Roman" font-size="14.00">Reproducible</text>
</g>
<!-- NonReproducible&#45;&#45;Reproducible -->
<g id="edge3" class="edge">
<title>NonReproducible&#45;&#45;Reproducible</title>
<path fill="none" stroke="black" d="M945,-450.8C945,-436.05 945,-414.92 945,-400.18"/>
<text text-anchor="middle" x="948" y="-421.8" font-family="Times-Roman" font-size="14.00">&#45;</text>
</g>
<!-- ClaimContainsEffect -->
<g id="node17" class="node">
<title>ClaimContainsEffect</title>
<ellipse fill="none" stroke="black" cx="945" cy="-542" rx="101.28" ry="18"/>
<text text-anchor="middle" x="945" y="-538.3" font-family="Times-Roman" font-size="14.00">ClaimContainsEffect</text>
</g>
<!-- ClaimContainsEffect&#45;&#45;NonReproducible -->
<g id="edge48" class="edge">
<title>ClaimContainsEffect&#45;&#45;NonReproducible</title>
<path fill="none" stroke="black" stroke-dasharray="1,5" d="M945,-523.81C945,-512.65 945,-498.16 945,-487.03"/>
</g>
<!-- SufficiencyOfDisclosureRaised -->
<g id="node18" class="node">
<title>SufficiencyOfDisclosureRaised</title>
<ellipse fill="none" stroke="black" cx="1017" cy="-629" rx="147.57" ry="18"/>
<text text-anchor="middle" x="1017" y="-625.3" font-family="Times-Roman" font-size="14.00">SufficiencyOfDisclosureRaised</text>
</g>
<!-- SufficiencyOfDisclosureRaised&#45;&#45;ClaimContainsEffect -->
<g id="edge49" class="edge">
<title>SufficiencyOfDisclosureRaised&#45;&#45;ClaimContainsEffect</title>
<path fill="none" stroke="black" stroke-dasharray="1,5" d="M1002.43,-610.8C989.86,-595.95 971.8,-574.64 959.3,-559.89"/>
</g>
<!-- AppliedInField -->
<g id="node19" class="node">
<title>AppliedInField</title>
<ellipse fill="none" stroke="black" cx="139" cy="-295" rx="74.19" ry="18"/>
<text text-anchor="middle" x="139" y="-291.3" font-family="Times-Roman" font-size="14.00">AppliedInField</text>
</g>
<!-- AppliedInField&#45;&#45;SpecificPurpose -->
<g id="edge4" class="edge">
<title>AppliedInField&#45;&#45;SpecificPurpose</title>
<path fill="none" stroke="black" d="M170.51,-278.61C201.75,-263.35 249.38,-240.08 280.84,-224.71"/>
<text text-anchor="middle" x="242.5" y="-247.8" font-family="Times-Roman" font-size="14.00">+</text>
</g>
<!-- AppliedInField&#45;&#45;FunctionallyLimited -->
<g id="edge5" class="edge">
<title>AppliedInField&#45;&#45;FunctionallyLimited</title>
<path fill="none" stroke="black" d="M133.94,-276.8C129.6,-262.05 123.39,-240.92 119.05,-226.18"/>
<text text-anchor="middle" x="134.5" y="-247.8" font-family="Times-Roman" font-size="14.00">+</text>
</g>
<!-- MathematicalContribution -->
<g id="node20" class="node">
<title>MathematicalContribution</title>
<ellipse fill="none" stroke="black" cx="232" cy="-382" rx="127.28" ry="18"/>
<text text-anchor="middle" x="232" y="-378.3" font-family="Times-Roman" font-size="14.00">MathematicalContribution</text>
</g>
<!-- MathematicalContribution&#45;&#45;TechnicalAdaptation -->
<g id="edge8" class="edge">
<title>MathematicalContribution&#45;&#45;TechnicalAdaptation</title>
<path fill="none" stroke="black" d="M255.71,-364.21C276.75,-349.31 307.32,-327.65 328.34,-312.76"/>
<text text-anchor="middle" x="305.5" y="-334.8" font-family="Times-Roman" font-size="14.00">+</text>
</g>
<!-- MathematicalContribution&#45;&#45;AppliedInField -->
<g id="edge7" class="edge">
<title>MathematicalContribution&#45;&#45;AppliedInField</title>
<path fill="none" stroke="black" d="M213.18,-363.8C196.83,-348.86 173.31,-327.36 157.16,-312.6"/>
<text text-anchor="middle" x="197.5" y="-334.8" font-family="Times-Roman" font-size="14.00">+</text>
</g>
<!-- MathematicalContribution&#45;&#45;MathematicalMethod -->
<g id="edge6" class="edge">
<title>MathematicalContribution&#45;&#45;MathematicalMethod</title>
<path fill="none" stroke="black" d="M228.36,-363.76C224.67,-341.2 222,-301.65 242,-277 289.83,-218.06 360.05,-287.17 405,-226 428.43,-194.11 383.39,-158.57 350.69,-138.38"/>
<text text-anchor="middle" x="391.5" y="-247.8" font-family="Times-Roman" font-size="14.00">+</text>
</g>
<!-- ComputationalContribution -->
<g id="node22" class="node">
<title>ComputationalContribution</title>
<ellipse fill="none" stroke="black" cx="510" cy="-382" rx="132.68" ry="18"/>
<text text-anchor="middle" x="510" y="-378.3" font-family="Times-Roman" font-size="14.00">ComputationalContribution</text>
</g>
<!-- ComputationalContribution&#45;&#45;TechnicalAdaptation -->
<g id="edge10" class="edge">
<title>ComputationalContribution&#45;&#45;TechnicalAdaptation</title>
<path fill="none" stroke="black" d="M479.16,-364.41C451.14,-349.34 410.05,-327.23 382.22,-312.26"/>
<text text-anchor="middle" x="446.5" y="-334.8" font-family="Times-Roman" font-size="14.00">+</text>
</g>
<!-- ComputationalContribution&#45;&#45;NumericalData -->
<g id="edge12" class="edge">
<title>ComputationalContribution&#45;&#45;NumericalData</title>
<path fill="none" stroke="black" d="M499.51,-363.82C480.39,-330.3 443.37,-253.85 461,-190 476.46,-134 519.38,-78.86 542.61,-51.96"/>
<text text-anchor="middle" x="467.5" y="-204.3" font-family="Times-Roman" font-size="14.00">+</text>
</g>
<!-- ComputationalContribution&#45;&#45;ComputerSimulation -->
<g id="edge9" class="edge">
<title>ComputationalContribution&#45;&#45;ComputerSimulation</title>
<path fill="none" stroke="black" d="M619.33,-371.73C659.1,-362.66 700.7,-345.42 727,-313 748.94,-285.95 738.21,-191.62 742,-157 746.09,-119.66 751.65,-76 754.72,-52.36"/>
<text text-anchor="middle" x="747.5" y="-204.3" font-family="Times-Roman" font-size="14.00">+</text>
</g>
<!-- ComputationalContribution&#45;&#45;IntendedTechnicalUse -->
<g id="edge11" class="edge">
<title>ComputationalContribution&#45;&#45;IntendedTechnicalUse</title>
<path fill="none" stroke="black" d="M507.62,-363.81C505.46,-342.33 504.39,-305.02 518,-277 528.44,-255.5 548.9,-237.54 565.67,-225.48"/>
<text text-anchor="middle" x="524.5" y="-291.3" font-family="Times-Roman" font-size="14.00">+</text>
</g>
<!-- ComputationalContribution&#45;&#45;TechUseSpecified -->
<g id="edge13" class="edge">
<title>ComputationalContribution&#45;&#45;TechUseSpecified</title>
<path fill="none" stroke="black" d="M533.51,-364.21C554.51,-349.21 585.08,-327.37 605.94,-312.47"/>
<text text-anchor="middle" x="582.5" y="-334.8" font-family="Times-Roman" font-size="14.00">+</text>
</g>
<!-- ExcludedField -->
<g id="node23" class="node">
<title>ExcludedField</title>
<ellipse fill="none" stroke="black" cx="1363" cy="-208" rx="72.59" ry="18"/>
<text text-anchor="middle" x="1363" y="-204.3" font-family="Times-Roman" font-size="14.00">ExcludedField</text>
</g>
<!-- ExcludedField&#45;&#45;NumericalData -->
<g id="edge15" class="edge">
<title>ExcludedField&#45;&#45;NumericalData</title>
<path fill="none" stroke="black" d="M1309.68,-195.66C1300.14,-193.71 1290.29,-191.75 1281,-190 1025.73,-141.78 957.08,-151.66 706,-85 668.38,-75.01 626.44,-60.51 596.83,-49.7"/>
<text text-anchor="middle" x="960.5" y="-117.3" font-family="Times-Roman" font-size="14.00">+</text>
</g>
<!-- ExcludedField&#45;&#45;ComputerSimulation -->
<g id="edge14" class="edge">
<title>ExcludedField&#45;&#45;ComputerSimulation</title>
<path fill="none" stroke="black" d="M1316.95,-193.93C1206.06,-162.45 924.75,-82.61 808.49,-49.61"/>
<text text-anchor="middle" x="1126.5" y="-117.3" font-family="Times-Roman" font-size="14.00">+</text>
</g>
<!-- ExcludedField&#45;&#45;MathematicalMethod -->
<g id="edge16" class="edge">
<title>ExcludedField&#45;&#45;MathematicalMethod</title>
<path fill="none" stroke="black" d="M1312.04,-195.04C1301.81,-193.03 1291.1,-191.21 1281,-190 1051.84,-162.47 992.18,-189.01 762,-172 635.02,-162.61 488.21,-144.51 400.09,-132.86"/>
<text text-anchor="middle" x="768.5" y="-160.8" font-family="Times-Roman" font-size="14.00">+</text>
</g>
<!-- OtherExclusions -->
<g id="node24" class="node">
<title>OtherExclusions</title>
<ellipse fill="none" stroke="black" cx="1363" cy="-121" rx="84.49" ry="18"/>
<text text-anchor="middle" x="1363" y="-117.3" font-family="Times-Roman" font-size="14.00">OtherExclusions</text>
</g>
<!-- ExcludedField&#45;&#45;OtherExclusions -->
<g id="edge17" class="edge">
<title>ExcludedField&#45;&#45;OtherExclusions</title>
<path fill="none" stroke="black" d="M1363,-189.8C1363,-175.05 1363,-153.92 1363,-139.18"/>
<text text-anchor="middle" x="1369.5" y="-160.8" font-family="Times-Roman" font-size="14.00">+</text>
</g>
<!-- NormalTechnicalContribution -->
<g id="node25" class="node">
<title>NormalTechnicalContribution</title>
<ellipse fill="none" stroke="black" cx="1148" cy="-295" rx="139.98" ry="18"/>
<text text-anchor="middle" x="1148" y="-291.3" font-family="Times-Roman" font-size="14.00">NormalTechnicalContribution</text>
</g>
<!-- NormalTechnicalContribution&#45;&#45;IndependentContribution -->
<g id="edge20" class="edge">
<title>NormalTechnicalContribution&#45;&#45;IndependentContribution</title>
<path fill="none" stroke="black" d="M1148,-276.8C1148,-262.05 1148,-240.92 1148,-226.18"/>
<text text-anchor="middle" x="1154.5" y="-247.8" font-family="Times-Roman" font-size="14.00">+</text>
</g>
<!-- NormalTechnicalContribution&#45;&#45;CombinationContribution -->
<g id="edge21" class="edge">
<title>NormalTechnicalContribution&#45;&#45;CombinationContribution</title>
<path fill="none" stroke="black" d="M1220.94,-279.58C1300.97,-263.76 1428.54,-238.55 1507.56,-222.92"/>
<text text-anchor="middle" x="1394.5" y="-247.8" font-family="Times-Roman" font-size="14.00">+</text>
</g>
<!-- NormalTechnicalContribution&#45;&#45;CircumventTechProblem -->
<g id="edge18" class="edge">
<title>NormalTechnicalContribution&#45;&#45;CircumventTechProblem</title>
<path fill="none" stroke="black" d="M1099.21,-278.11C1052.15,-262.78 981.35,-239.73 934.67,-224.52"/>
<text text-anchor="middle" x="1036" y="-247.8" font-family="Times-Roman" font-size="14.00">&#45;</text>
</g>
<!-- NormalTechnicalContribution&#45;&#45;ExcludedField -->
<g id="edge19" class="edge">
<title>NormalTechnicalContribution&#45;&#45;ExcludedField</title>
<path fill="none" stroke="black" d="M1189.2,-277.71C1228.71,-262.09 1287.81,-238.73 1325.89,-223.67"/>
<text text-anchor="middle" x="1271" y="-247.8" font-family="Times-Roman" font-size="14.00">&#45;</text>
</g>
<!-- FeatureTechnicalContribution&#45;&#45;MathematicalContribution -->
<g id="edge24" class="edge">
<title>FeatureTechnicalContribution&#45;&#45;MathematicalContribution</title>
<path fill="none" stroke="black" d="M458.36,-452.21C408.27,-436.9 332.73,-413.8 282.89,-398.56"/>
<text text-anchor="middle" x="393.5" y="-421.8" font-family="Times-Roman" font-size="14.00">+</text>
</g>
<!-- FeatureTechnicalContribution&#45;&#45;ComputationalContribution -->
<g id="edge23" class="edge">
<title>FeatureTechnicalContribution&#45;&#45;ComputationalContribution</title>
<path fill="none" stroke="black" d="M510,-450.8C510,-436.05 510,-414.92 510,-400.18"/>
<text text-anchor="middle" x="516.5" y="-421.8" font-family="Times-Roman" font-size="14.00">+</text>
</g>
<!-- FeatureTechnicalContribution&#45;&#45;NormalTechnicalContribution -->
<g id="edge22" class="edge">
<title>FeatureTechnicalContribution&#45;&#45;NormalTechnicalContribution</title>
<path fill="none" stroke="black" d="M558.83,-452.05C625.09,-430.67 747.33,-392.16 853,-364 929.69,-343.56 1018.54,-323.58 1078.53,-310.62"/>
<text text-anchor="middle" x="859.5" y="-378.3" font-family="Times-Roman" font-size="14.00">+</text>
</g>
<!-- BonusEffect -->
<g id="node27" class="node">
<title>BonusEffect</title>
<ellipse fill="none" stroke="black" cx="420" cy="-716" rx="64.99" ry="18"/>
<text text-anchor="middle" x="420" y="-712.3" font-family="Times-Roman" font-size="14.00">BonusEffect</text>
</g>
<!-- BonusEffect&#45;&#45;UnexpectedEffect -->
<g id="edge26" class="edge">
<title>BonusEffect&#45;&#45;UnexpectedEffect</title>
<path fill="none" stroke="black" d="M411.54,-698.04C402.07,-676.47 389.92,-638.73 405,-611 418.54,-586.1 445.56,-568.92 468.8,-558.05"/>
<text text-anchor="middle" x="411.5" y="-625.3" font-family="Times-Roman" font-size="14.00">+</text>
</g>
<!-- BonusEffect&#45;&#45;OneWayStreet -->
<g id="edge27" class="edge">
<title>BonusEffect&#45;&#45;OneWayStreet</title>
<path fill="none" stroke="black" d="M436.2,-698.21C450.58,-683.31 471.47,-661.65 485.83,-646.76"/>
<text text-anchor="middle" x="471.5" y="-668.8" font-family="Times-Roman" font-size="14.00">+</text>
</g>
<!-- BonusEffect&#45;&#45;FeatureTechnicalContribution -->
<g id="edge25" class="edge">
<title>BonusEffect&#45;&#45;FeatureTechnicalContribution</title>
<path fill="none" stroke="black" d="M405.9,-698.16C402.04,-692.69 398.3,-686.38 396,-680 372.4,-614.51 368.75,-580.07 410,-524 422.69,-506.76 442.58,-494.43 461.3,-485.95"/>
<text text-anchor="middle" x="387.5" y="-581.8" font-family="Times-Roman" font-size="14.00">+</text>
</g>
<!-- SufficiencyOfDisclosureIssue -->
<g id="node28" class="node">
<title>SufficiencyOfDisclosureIssue</title>
<ellipse fill="none" stroke="black" cx="961" cy="-716" rx="141.07" ry="18"/>
<text text-anchor="middle" x="961" y="-712.3" font-family="Times-Roman" font-size="14.00">SufficiencyOfDisclosureIssue</text>
</g>
<!-- SufficiencyOfDisclosureIssue&#45;&#45;Reproducible -->
<g id="edge28" class="edge">
<title>SufficiencyOfDisclosureIssue&#45;&#45;Reproducible</title>
<path fill="none" stroke="black" d="M1037.43,-700.81C1101.99,-686.58 1184,-662.16 1184,-630 1184,-630 1184,-630 1184,-468 1184,-429.8 1074.22,-404.33 1003.47,-391.89"/>
<text text-anchor="middle" x="1187" y="-538.3" font-family="Times-Roman" font-size="14.00">&#45;</text>
</g>
<!-- SufficiencyOfDisclosureIssue&#45;&#45;ClaimContainsEffect -->
<g id="edge29" class="edge">
<title>SufficiencyOfDisclosureIssue&#45;&#45;ClaimContainsEffect</title>
<path fill="none" stroke="black" d="M912.29,-699.1C888.08,-688.44 861.05,-671.75 847,-647 839.1,-633.09 839.58,-625.18 847,-611 859.48,-587.15 884.56,-569.98 906.22,-558.87"/>
<text text-anchor="middle" x="853.5" y="-625.3" font-family="Times-Roman" font-size="14.00">+</text>
</g>
<!-- SufficiencyOfDisclosureIssue&#45;&#45;SufficiencyOfDisclosureRaised -->
<g id="edge30" class="edge">
<title>SufficiencyOfDisclosureIssue&#45;&#45;SufficiencyOfDisclosureRaised</title>
<path fill="none" stroke="black" d="M972.33,-697.8C982.05,-683.05 995.97,-661.92 1005.68,-647.18"/>
<text text-anchor="middle" x="998.5" y="-668.8" font-family="Times-Roman" font-size="14.00">+</text>
</g>
<!-- ImpreciseUnexpectedEffect -->
<g id="node29" class="node">
<title>ImpreciseUnexpectedEffect</title>
<ellipse fill="none" stroke="black" cx="647" cy="-716" rx="134.58" ry="18"/>
<text text-anchor="middle" x="647" y="-712.3" font-family="Times-Roman" font-size="14.00">ImpreciseUnexpectedEffect</text>
</g>
<!-- ImpreciseUnexpectedEffect&#45;&#45;UnexpectedEffect -->
<g id="edge32" class="edge">
<title>ImpreciseUnexpectedEffect&#45;&#45;UnexpectedEffect</title>
<path fill="none" stroke="black" d="M638.97,-697.76C628.5,-676.23 608.8,-638.87 586,-611 569.97,-591.4 548.13,-572.48 531.98,-559.6"/>
<text text-anchor="middle" x="616.5" y="-625.3" font-family="Times-Roman" font-size="14.00">+</text>
</g>
<!-- ImpreciseUnexpectedEffect&#45;&#45;PreciseTerms -->
<g id="edge31" class="edge">
<title>ImpreciseUnexpectedEffect&#45;&#45;PreciseTerms</title>
<path fill="none" stroke="black" d="M660.36,-697.8C671.88,-682.95 688.43,-661.64 699.89,-646.89"/>
<text text-anchor="middle" x="686" y="-668.8" font-family="Times-Roman" font-size="14.00">&#45;</text>
</g>
<!-- FeatureReliableTechnicalEffect -->
<g id="node30" class="node">
<title>FeatureReliableTechnicalEffect</title>
<ellipse fill="none" stroke="black" cx="759" cy="-803" rx="146.47" ry="18"/>
<text text-anchor="middle" x="759" y="-799.3" font-family="Times-Roman" font-size="14.00">FeatureReliableTechnicalEffect</text>
</g>
<!-- FeatureReliableTechnicalEffect&#45;&#45;Reproducible -->
<g id="edge38" class="edge">
<title>FeatureReliableTechnicalEffect&#45;&#45;Reproducible</title>
<path fill="none" stroke="black" d="M773.22,-784.98C785.4,-768.62 801,-742.68 801,-717 801,-717 801,-717 801,-468 801,-443.4 864.13,-414.11 906.79,-397.13"/>
<text text-anchor="middle" x="804" y="-581.8" font-family="Times-Roman" font-size="14.00">&#45;</text>
</g>
<!-- FeatureReliableTechnicalEffect&#45;&#45;FeatureTechnicalContribution -->
<g id="edge36" class="edge">
<title>FeatureReliableTechnicalEffect&#45;&#45;FeatureTechnicalContribution</title>
<path fill="none" stroke="black" d="M613.95,-800.57C488.45,-795.26 327,-776.81 327,-717 327,-717 327,-717 327,-541 327,-516.25 385.91,-496.73 436.88,-484.47"/>
<text text-anchor="middle" x="333.5" y="-625.3" font-family="Times-Roman" font-size="14.00">+</text>
</g>
<!-- FeatureReliableTechnicalEffect&#45;&#45;BonusEffect -->
<g id="edge34" class="edge">
<title>FeatureReliableTechnicalEffect&#45;&#45;BonusEffect</title>
<path fill="none" stroke="black" d="M697.61,-786.61C631.12,-769.93 526.52,-743.71 466.51,-728.66"/>
<text text-anchor="middle" x="612" y="-755.8" font-family="Times-Roman" font-size="14.00">&#45;</text>
</g>
<!-- FeatureReliableTechnicalEffect&#45;&#45;SufficiencyOfDisclosureIssue -->
<g id="edge33" class="edge">
<title>FeatureReliableTechnicalEffect&#45;&#45;SufficiencyOfDisclosureIssue</title>
<path fill="none" stroke="black" d="M797.95,-785.61C833.72,-770.56 886.44,-748.37 922.17,-733.34"/>
<text text-anchor="middle" x="875" y="-755.8" font-family="Times-Roman" font-size="14.00">&#45;</text>
</g>
<!-- FeatureReliableTechnicalEffect&#45;&#45;ImpreciseUnexpectedEffect -->
<g id="edge35" class="edge">
<title>FeatureReliableTechnicalEffect&#45;&#45;ImpreciseUnexpectedEffect</title>
<path fill="none" stroke="black" d="M736.87,-785.21C717.24,-770.31 688.7,-748.65 669.08,-733.76"/>
<text text-anchor="middle" x="712" y="-755.8" font-family="Times-Roman" font-size="14.00">&#45;</text>
</g>
<!-- Credible -->
<g id="node31" class="node">
<title>Credible</title>
<ellipse fill="none" stroke="black" cx="1168" cy="-716" rx="48.19" ry="18"/>
<text text-anchor="middle" x="1168" y="-712.3" font-family="Times-Roman" font-size="14.00">Credible</text>
</g>
<!-- FeatureReliableTechnicalEffect&#45;&#45;Credible -->
<g id="edge37" class="edge">
<title>FeatureReliableTechnicalEffect&#45;&#45;Credible</title>
<path fill="none" stroke="black" d="M842.72,-788.23C914.36,-775.88 1020.02,-756.3 1111,-734 1117.92,-732.3 1125.25,-730.29 1132.27,-728.25"/>
<text text-anchor="middle" x="1030.5" y="-755.8" font-family="Times-Roman" font-size="14.00">+</text>
</g>
</g>
</svg>
