<?xml version="1.0" encoding="UTF-8" standalone="no"?>
<!DOCTYPE svg PUBLIC "-//W3C//DTD SVG 1.1//EN"
 "http://www.w3.org/Graphics/SVG/1.1/DTD/svg11.dtd">
<!-- Generated by graphviz version 2.44.0 (0)
 -->
<!-- Title: Sub&#45;Model_2 Pages: 1 -->
<svg width="710pt" height="607pt"
 viewBox="0.00 0.00 710.00 607.00" xmlns="http://www.w3.org/2000/svg" xmlns:xlink="http://www.w3.org/1999/xlink">
<g id="graph0" class="graph" transform="scale(1 1) rotate(0) translate(4 603)">
<title>Sub&#45;Model_2</title>
<polygon fill="white" stroke="transparent" points="-4,4 -4,-603 706,-603 706,4 -4,4"/>
<g id="clust1" class="cluster">
<title>cluster_sub_2</title>
<polygon fill="none" stroke="black" points="8,-8 8,-591 694,-591 694,-8 8,-8"/>
<text text-anchor="middle" x="351" y="-575.8" font-family="Times-Roman" font-size="14.00">Sub&#45;Model 2</text>
</g>
<!-- BasicFormulation -->
<g id="node1" class="node">
<title>BasicFormulation</title>
<ellipse fill="none" stroke="black" cx="235" cy="-121" rx="87.99" ry="18"/>
<text text-anchor="middle" x="235" y="-117.3" font-family="Times-Roman" font-size="14.00">BasicFormulation</text>
</g>
<!-- Encompassed -->
<g id="node2" class="node">
<title>Encompassed</title>
<ellipse fill="none" stroke="black" cx="89" cy="-34" rx="73.39" ry="18"/>
<text text-anchor="middle" x="89" y="-30.3" font-family="Times-Roman" font-size="14.00">Encompassed</text>
</g>
<!-- BasicFormulation&#45;&#45;Encompassed -->
<g id="edge1" class="edge">
<title>BasicFormulation&#45;&#45;Encompassed</title>
<path fill="none" stroke="black" d="M207.19,-103.81C181.05,-88.59 142.16,-65.95 116.21,-50.84"/>
<text text-anchor="middle" x="176.5" y="-73.8" font-family="Times-Roman" font-size="14.00">+</text>
</g>
<!-- Embodied -->
<g id="node3" class="node">
<title>Embodied</title>
<ellipse fill="none" stroke="black" cx="236" cy="-34" rx="55.79" ry="18"/>
<text text-anchor="middle" x="236" y="-30.3" font-family="Times-Roman" font-size="14.00">Embodied</text>
</g>
<!-- BasicFormulation&#45;&#45;Embodied -->
<g id="edge2" class="edge">
<title>BasicFormulation&#45;&#45;Embodied</title>
<path fill="none" stroke="black" d="M235.2,-102.8C235.38,-88.05 235.62,-66.92 235.8,-52.18"/>
<text text-anchor="middle" x="241.5" y="-73.8" font-family="Times-Roman" font-size="14.00">+</text>
</g>
<!-- ScopeOfClaim -->
<g id="node4" class="node">
<title>ScopeOfClaim</title>
<ellipse fill="none" stroke="black" cx="384" cy="-34" rx="74.19" ry="18"/>
<text text-anchor="middle" x="384" y="-30.3" font-family="Times-Roman" font-size="14.00">ScopeOfClaim</text>
</g>
<!-- BasicFormulation&#45;&#45;ScopeOfClaim -->
<g id="edge3" class="edge">
<title>BasicFormulation&#45;&#45;ScopeOfClaim</title>
<path fill="none" stroke="black" d="M263.38,-103.81C290.06,-88.59 329.75,-65.95 356.23,-50.84"/>
<text text-anchor="middle" x="324.5" y="-73.8" font-family="Times-Roman" font-size="14.00">+</text>
</g>
<!-- WellFormed -->
<g id="node5" class="node">
<title>WellFormed</title>
<ellipse fill="none" stroke="black" cx="226" cy="-281" rx="63.09" ry="18"/>
<text text-anchor="middle" x="226" y="-277.3" font-family="Times-Roman" font-size="14.00">WellFormed</text>
</g>
<!-- WellFormed&#45;&#45;BasicFormulation -->
<g id="edge6" class="edge">
<title>WellFormed&#45;&#45;BasicFormulation</title>
<path fill="none" stroke="black" d="M201.28,-264.2C173.69,-244.46 135.11,-209.21 153,-176 162.3,-158.74 179.79,-146.09 196.24,-137.39"/>
<text text-anchor="middle" x="159.5" y="-190.3" font-family="Times-Roman" font-size="14.00">+</text>
</g>
<!-- Hindsight -->
<g id="node6" class="node">
<title>Hindsight</title>
<ellipse fill="none" stroke="black" cx="229" cy="-194" rx="53.89" ry="18"/>
<text text-anchor="middle" x="229" y="-190.3" font-family="Times-Roman" font-size="14.00">Hindsight</text>
</g>
<!-- WellFormed&#45;&#45;Hindsight -->
<g id="edge4" class="edge">
<title>WellFormed&#45;&#45;Hindsight</title>
<path fill="none" stroke="black" d="M226.61,-262.8C227.13,-248.05 227.87,-226.92 228.39,-212.18"/>
<text text-anchor="middle" x="230" y="-233.8" font-family="Times-Roman" font-size="14.00">&#45;</text>
</g>
<!-- WrittenFormulation -->
<g id="node7" class="node">
<title>WrittenFormulation</title>
<ellipse fill="none" stroke="black" cx="398" cy="-194" rx="96.68" ry="18"/>
<text text-anchor="middle" x="398" y="-190.3" font-family="Times-Roman" font-size="14.00">WrittenFormulation</text>
</g>
<!-- WellFormed&#45;&#45;WrittenFormulation -->
<g id="edge5" class="edge">
<title>WellFormed&#45;&#45;WrittenFormulation</title>
<path fill="none" stroke="black" d="M256.35,-265C287.02,-249.84 334.24,-226.51 365.61,-211.01"/>
<text text-anchor="middle" x="328.5" y="-233.8" font-family="Times-Roman" font-size="14.00">+</text>
</g>
<!-- Hindsight&#45;&#45;BasicFormulation -->
<g id="edge14" class="edge">
<title>Hindsight&#45;&#45;BasicFormulation</title>
<path fill="none" stroke="black" stroke-dasharray="1,5" d="M230.45,-175.81C231.4,-164.65 232.62,-150.16 233.56,-139.03"/>
</g>
<!-- WrittenFormulation&#45;&#45;BasicFormulation -->
<g id="edge15" class="edge">
<title>WrittenFormulation&#45;&#45;BasicFormulation</title>
<path fill="none" stroke="black" stroke-dasharray="1,5" d="M361.83,-177.24C334.63,-165.4 297.55,-149.25 270.51,-137.47"/>
</g>
<!-- ConstrainedProblem -->
<g id="node8" class="node">
<title>ConstrainedProblem</title>
<ellipse fill="none" stroke="black" cx="333" cy="-368" rx="102.08" ry="18"/>
<text text-anchor="middle" x="333" y="-364.3" font-family="Times-Roman" font-size="14.00">ConstrainedProblem</text>
</g>
<!-- ConstrainedProblem&#45;&#45;WellFormed -->
<g id="edge7" class="edge">
<title>ConstrainedProblem&#45;&#45;WellFormed</title>
<path fill="none" stroke="black" d="M311.86,-350.21C292.86,-335.11 265.13,-313.09 246.37,-298.18"/>
<text text-anchor="middle" x="291.5" y="-320.8" font-family="Times-Roman" font-size="14.00">+</text>
</g>
<!-- NonTechnicalContribution -->
<g id="node9" class="node">
<title>NonTechnicalContribution</title>
<ellipse fill="none" stroke="black" cx="433" cy="-281" rx="126.18" ry="18"/>
<text text-anchor="middle" x="433" y="-277.3" font-family="Times-Roman" font-size="14.00">NonTechnicalContribution</text>
</g>
<!-- ConstrainedProblem&#45;&#45;NonTechnicalContribution -->
<g id="edge8" class="edge">
<title>ConstrainedProblem&#45;&#45;NonTechnicalContribution</title>
<path fill="none" stroke="black" d="M352.76,-350.21C370.17,-335.4 395.43,-313.93 412.94,-299.05"/>
<text text-anchor="middle" x="394.5" y="-320.8" font-family="Times-Roman" font-size="14.00">+</text>
</g>
<!-- ObjectiveTechnicalProblemFormulation -->
<g id="node10" class="node">
<title>ObjectiveTechnicalProblemFormulation</title>
<ellipse fill="none" stroke="black" cx="200" cy="-455" rx="183.87" ry="18"/>
<text text-anchor="middle" x="200" y="-451.3" font-family="Times-Roman" font-size="14.00">ObjectiveTechnicalProblemFormulation</text>
</g>
<!-- ObjectiveTechnicalProblemFormulation&#45;&#45;WellFormed -->
<g id="edge10" class="edge">
<title>ObjectiveTechnicalProblemFormulation&#45;&#45;WellFormed</title>
<path fill="none" stroke="black" d="M200.64,-436.96C201.62,-416.28 203.92,-380.39 209,-350 211.93,-332.48 217.05,-312.82 220.9,-299.17"/>
<text text-anchor="middle" x="215.5" y="-364.3" font-family="Times-Roman" font-size="14.00">+</text>
</g>
<!-- ObjectiveTechnicalProblemFormulation&#45;&#45;ConstrainedProblem -->
<g id="edge9" class="edge">
<title>ObjectiveTechnicalProblemFormulation&#45;&#45;ConstrainedProblem</title>
<path fill="none" stroke="black" d="M226.59,-437C249.94,-422.08 283.71,-400.5 306.9,-385.68"/>
<text text-anchor="middle" x="280.5" y="-407.8" font-family="Times-Roman" font-size="14.00">+</text>
</g>
<!-- WouldHaveArrived -->
<g id="node11" class="node">
<title>WouldHaveArrived</title>
<ellipse fill="none" stroke="black" cx="470" cy="-542" rx="94.48" ry="18"/>
<text text-anchor="middle" x="470" y="-538.3" font-family="Times-Roman" font-size="14.00">WouldHaveArrived</text>
</g>
<!-- WouldHaveArrived&#45;&#45;ObjectiveTechnicalProblemFormulation -->
<g id="edge12" class="edge">
<title>WouldHaveArrived&#45;&#45;ObjectiveTechnicalProblemFormulation</title>
<path fill="none" stroke="black" d="M423.28,-526.29C375.58,-511.28 301.71,-488.02 252.14,-472.41"/>
<text text-anchor="middle" x="357.5" y="-494.8" font-family="Times-Roman" font-size="14.00">+</text>
</g>
<!-- WouldModify -->
<g id="node12" class="node">
<title>WouldModify</title>
<ellipse fill="none" stroke="black" cx="470" cy="-455" rx="68.49" ry="18"/>
<text text-anchor="middle" x="470" y="-451.3" font-family="Times-Roman" font-size="14.00">WouldModify</text>
</g>
<!-- WouldHaveArrived&#45;&#45;WouldModify -->
<g id="edge11" class="edge">
<title>WouldHaveArrived&#45;&#45;WouldModify</title>
<path fill="none" stroke="black" d="M470,-523.8C470,-509.05 470,-487.92 470,-473.18"/>
<text text-anchor="middle" x="476.5" y="-494.8" font-family="Times-Roman" font-size="14.00">+</text>
</g>
<!-- WouldAdapt -->
<g id="node13" class="node">
<title>WouldAdapt</title>
<ellipse fill="none" stroke="black" cx="621" cy="-455" rx="64.99" ry="18"/>
<text text-anchor="middle" x="621" y="-451.3" font-family="Times-Roman" font-size="14.00">WouldAdapt</text>
</g>
<!-- WouldHaveArrived&#45;&#45;WouldAdapt -->
<g id="edge13" class="edge">
<title>WouldHaveArrived&#45;&#45;WouldAdapt</title>
<path fill="none" stroke="black" d="M498.76,-524.81C526.05,-509.45 566.79,-486.52 593.62,-471.41"/>
<text text-anchor="middle" x="560.5" y="-494.8" font-family="Times-Roman" font-size="14.00">+</text>
</g>
</g>
</svg>
